<svg width="19" height="19" viewBox="0 0 19 19" fill="none" xmlns="http://www.w3.org/2000/svg">
<g filter="url(#filter0_d_41_655)">
<path d="M2 3.42857C2 2.63959 2.63959 2 3.42857 2L14.5714 2C15.3604 2 16 2.63959 16 3.42857V14.5714C16 15.3604 15.3604 16 14.5714 16H3.42857C2.63959 16 2 15.3604 2 14.5714L2 3.42857Z" fill="white"/>
<path d="M3.42857 1C2.08731 1 1 2.08731 1 3.42857L1 14.5714C1 15.9127 2.08731 17 3.42857 17H14.5714C15.9127 17 17 15.9127 17 14.5714V3.42857C17 2.08731 15.9127 1 14.5714 1L3.42857 1Z" stroke="#0D0D0D" stroke-width="2"/>
</g>
<path d="M10.2857 9.00007C10.2857 9.71016 9.71009 10.2858 9.00001 10.2858C8.28992 10.2858 7.71429 9.71016 7.71429 9.00007C7.71429 8.28998 8.28992 7.71436 9.00001 7.71436C9.71009 7.71436 10.2857 8.28998 10.2857 9.00007Z" fill="#0D0D0D"/>
<path d="M6.42854 12.8572C6.42854 13.5673 5.85292 14.143 5.14283 14.143C4.43275 14.143 3.85712 13.5673 3.85712 12.8572C3.85712 12.1472 4.43275 11.5715 5.14283 11.5715C5.85292 11.5715 6.42854 12.1472 6.42854 12.8572Z" fill="#0D0D0D"/>
<path d="M14.1428 5.14289C14.1428 5.85298 13.5672 6.42861 12.8571 6.42861C12.147 6.42861 11.5714 5.85298 11.5714 5.14289C11.5714 4.43281 12.147 3.85718 12.8571 3.85718C13.5672 3.85718 14.1428 4.43281 14.1428 5.14289Z" fill="#0D0D0D"/>
<defs>
<filter id="filter0_d_41_655" x="0" y="0" width="19" height="19" filterUnits="userSpaceOnUse" color-interpolation-filters="sRGB">
<feFlood flood-opacity="0" result="BackgroundImageFix"/>
<feColorMatrix in="SourceAlpha" type="matrix" values="0 0 0 0 0 0 0 0 0 0 0 0 0 0 0 0 0 0 127 0" result="hardAlpha"/>
<feOffset dx="1" dy="1"/>
<feColorMatrix type="matrix" values="0 0 0 0 0 0 0 0 0 0 0 0 0 0 0 0 0 0 1 0"/>
<feBlend mode="normal" in2="BackgroundImageFix" result="effect1_dropShadow_41_655"/>
<feBlend mode="normal" in="SourceGraphic" in2="effect1_dropShadow_41_655" result="shape"/>
</filter>
</defs>
</svg>
