<svg width="19" height="19" viewBox="0 0 19 19" fill="none" xmlns="http://www.w3.org/2000/svg">
<g filter="url(#filter0_d_41_675)">
<path d="M2 3.42857C2 2.63959 2.63959 2 3.42857 2H14.5714C15.3604 2 16 2.63959 16 3.42857V14.5714C16 15.3604 15.3604 16 14.5714 16H3.42857C2.63959 16 2 15.3604 2 14.5714V3.42857Z" fill="white"/>
<path d="M3.42857 1C2.08731 1 1 2.08731 1 3.42857V14.5714C1 15.9127 2.08731 17 3.42857 17H14.5714C15.9127 17 17 15.9127 17 14.5714V3.42857C17 2.08731 15.9127 1 14.5714 1H3.42857Z" stroke="#0D0D0D" stroke-width="2"/>
</g>
<path d="M10.2857 9.00007C10.2857 9.71016 9.71009 10.2858 9.00001 10.2858C8.28993 10.2858 7.71429 9.71016 7.71429 9.00007C7.71429 8.28999 8.28993 7.71436 9.00001 7.71436C9.71009 7.71436 10.2857 8.28999 10.2857 9.00007Z" fill="#0D0D0D"/>
<defs>
<filter id="filter0_d_41_675" x="0" y="0" width="19" height="19" filterUnits="userSpaceOnUse" color-interpolation-filters="sRGB">
<feFlood flood-opacity="0" result="BackgroundImageFix"/>
<feColorMatrix in="SourceAlpha" type="matrix" values="0 0 0 0 0 0 0 0 0 0 0 0 0 0 0 0 0 0 127 0" result="hardAlpha"/>
<feOffset dx="1" dy="1"/>
<feColorMatrix type="matrix" values="0 0 0 0 0 0 0 0 0 0 0 0 0 0 0 0 0 0 1 0"/>
<feBlend mode="normal" in2="BackgroundImageFix" result="effect1_dropShadow_41_675"/>
<feBlend mode="normal" in="SourceGraphic" in2="effect1_dropShadow_41_675" result="shape"/>
</filter>
</defs>
</svg>
