<?xml version="1.0" standalone="no"?>
<!DOCTYPE svg PUBLIC "-//W3C//DTD SVG 20010904//EN"
 "http://www.w3.org/TR/2001/REC-SVG-20010904/DTD/svg10.dtd">
<svg version="1.0" xmlns="http://www.w3.org/2000/svg"
 width="810.000000pt" height="308.000000pt" viewBox="0 0 810.000000 308.000000"
 preserveAspectRatio="xMidYMid meet">

<g transform="translate(0.000000,308.000000) scale(0.100000,-0.100000)"
fill="#000000" stroke="none">
<path d="M7453 3066 c-270 -62 -507 -353 -581 -717 -14 -66 -21 -87 -25 -69
-41 186 -76 271 -142 350 -182 218 -513 231 -748 30 -206 -176 -323 -431 -343
-745 -24 -387 141 -670 425 -731 276 -58 556 95 705 385 37 72 96 232 96 260
0 6 -245 -37 -356 -64 -14 -3 -27 -20 -38 -49 -42 -111 -140 -186 -240 -186
-68 0 -109 26 -141 90 -28 55 -55 205 -39 218 12 11 813 187 819 180 3 -3 10
-31 16 -64 56 -320 259 -514 539 -514 253 0 471 159 605 441 44 94 83 214 73
224 -3 3 -85 -12 -183 -35 -97 -22 -179 -40 -181 -40 -2 0 -15 -24 -30 -52
-63 -126 -182 -203 -275 -178 -50 14 -105 76 -123 142 -16 56 -32 178 -24 178
9 0 802 170 821 176 37 11 13 290 -36 427 -62 170 -170 282 -317 328 -83 26
-201 32 -277 15z m150 -360 c18 -7 46 -28 62 -47 30 -35 63 -114 52 -125 -8
-8 -436 -102 -441 -97 -8 8 15 86 39 133 56 110 194 176 288 136z m-1234 -270
c60 -32 132 -151 105 -175 -13 -11 -434 -104 -441 -97 -8 8 15 82 42 137 58
113 205 181 294 135z"/>
<path d="M3513 2687 l-193 -41 0 -1039 c0 -827 3 -1038 13 -1035 6 3 96 22
199 43 l188 39 2 606 3 605 107 23 c106 24 108 24 145 5 75 -36 73 -21 73
-625 0 -296 2 -538 5 -538 8 0 367 80 388 86 17 5 18 36 15 617 -3 602 -3 613
-25 665 -50 122 -120 173 -247 180 -68 3 -111 -3 -266 -37 -102 -23 -189 -41
-193 -41 -4 0 -7 119 -7 265 0 146 -3 265 -7 264 -5 0 -95 -19 -200 -42z"/>
<path d="M5635 2624 c-10 -4 -403 -89 -805 -175 -129 -27 -243 -52 -252 -55
-16 -5 -18 -22 -18 -170 0 -90 3 -164 8 -164 4 0 149 31 321 70 173 38 317 68
319 65 6 -5 -112 -182 -273 -410 -267 -378 -374 -602 -404 -849 -6 -49 -9 -91
-7 -93 3 -3 1064 230 1109 243 15 5 17 22 17 170 l0 166 -27 -6 c-408 -88
-629 -134 -632 -131 -6 7 18 67 54 130 19 34 87 136 151 226 245 343 352 526
408 700 41 128 59 292 31 283z"/>
<path d="M2953 2378 l-183 -41 0 -172 0 -173 -57 -14 -58 -14 -3 -168 c-2
-156 -1 -167 15 -162 10 3 37 9 61 15 l42 9 0 -604 0 -604 23 5 c52 12 380 85
383 85 2 0 4 272 4 604 0 595 0 604 20 609 19 5 20 14 20 172 0 162 -1 166
-20 160 -19 -6 -20 -2 -20 164 0 171 0 171 -22 170 -13 0 -105 -19 -205 -41z"/>
<path d="M1427 2241 l-258 -56 -151 -308 c-83 -169 -154 -307 -158 -307 -3 0
-77 106 -163 235 -87 129 -163 235 -170 235 -22 -1 -507 -107 -513 -112 -3 -4
139 -219 315 -480 l321 -473 0 -482 0 -483 35 0 c29 0 210 37 373 75 l22 5 0
496 0 496 54 102 c129 243 566 1116 559 1115 -4 -1 -124 -27 -266 -58z"/>
<path d="M2167 1865 c-450 -100 -494 -117 -626 -241 -179 -168 -275 -388 -302
-691 -24 -266 38 -477 183 -621 120 -120 263 -146 452 -82 80 27 159 83 223
158 28 33 54 58 57 54 3 -3 6 -29 6 -59 0 -29 3 -53 8 -52 4 0 93 19 197 43
l190 43 3 766 c1 422 -1 767 -5 766 -5 0 -178 -38 -386 -84z m-7 -688 l0 -354
-30 -61 c-96 -190 -285 -248 -394 -120 -49 57 -67 116 -73 239 -16 321 76 542
247 597 48 16 200 50 228 51 l22 1 0 -353z"/>
</g>
</svg>
